<svg width="21" height="26" fill="none" xmlns="http://www.w3.org/2000/svg"><mask id="a" style="mask-type:alpha" maskUnits="userSpaceOnUse" x="0" y="0" width="21" height="26"><path d="M10.492 0c-.122 0-.25 0-.372.005C4.88.186.548 4.261.048 9.48a10.625 10.625 0 00.213 3.346c.16.718.398 1.414.701 2.063 1.08 2.559 3.444 6.5 8.579 10.766a1.513 1.513 0 001.924 0c5.129-4.26 7.494-8.207 8.568-10.744a10.326 10.326 0 00.776-2.415c.127-.655.191-1.325.191-1.995C20.99 4.713 16.28 0 10.492 0z" fill="#000"/></mask><g mask="url(#a)"><path d="M35.26-2h-53.246v28.626h53.245V-2z" fill="#00AFCA"/><path d="M14.513 11.21A3.925 3.925 0 106.79 9.803a3.925 3.925 0 107.722 1.406zm-3.861-5.166a.295.295 0 00.327-.327c0-.235-.327-1.347-.327-1.347s-.32 1.112-.32 1.347a.294.294 0 00.32.327zm4.459 4.463a.296.296 0 00.327.321c.233 0 1.345-.321 1.345-.321s-1.112-.32-1.345-.32a.293.293 0 00-.327.32zm-4.459 4.463a.293.293 0 00-.32.328c0 .233.32 1.345.32 1.345s.327-1.112.327-1.345a.294.294 0 00-.327-.327zm-4.46-4.463a.295.295 0 00-.327-.32c-.234 0-1.345.32-1.345.32s1.111.321 1.345.321a.292.292 0 00.311-.192.295.295 0 00.016-.13zM12.36 6.38a.293.293 0 00.42-.175c.088-.218.217-1.366.217-1.366s-.723.904-.812 1.12a.292.292 0 00.174.422zm2.413 5.835a.293.293 0 00.176.42c.218.09 1.365.218 1.365.218s-.904-.723-1.12-.812a.293.293 0 00-.421.174zM8.946 14.63a.294.294 0 00-.42.177c-.09.218-.219 1.367-.219 1.367s.722-.905.811-1.121a.293.293 0 00-.172-.422zM6.531 8.8a.295.295 0 00-.176-.422c-.218-.09-1.365-.218-1.365-.218s.904.722 1.12.811a.292.292 0 00.42-.171zm7.275-1.449a.297.297 0 00.456 0c.165-.165.724-1.178.724-1.178s-1.013.559-1.179.724a.295.295 0 00-.001.454zm0 6.313a.295.295 0 000 .455c.166.165 1.179.724 1.179.724s-.56-1.013-.724-1.177a.292.292 0 00-.455-.002z" fill="#FEC50C"/><path d="M7.5 13.664a.294.294 0 00-.457 0c-.165.164-.724 1.177-.724 1.177s1.013-.56 1.178-.724a.294.294 0 00.003-.454zm0-6.313a.297.297 0 000-.457c-.166-.164-1.18-.724-1.18-.724s.56 1.013.725 1.179a.294.294 0 00.455.002zM14.772 8.8a.293.293 0 00.422.172c.218-.09 1.12-.812 1.12-.812s-1.15.129-1.365.218a.293.293 0 00-.177.421zm-2.412 5.83a.296.296 0 00-.174.423c.09.218.812 1.12.812 1.12s-.13-1.15-.218-1.366a.292.292 0 00-.42-.176zm-5.829-2.415a.296.296 0 00-.422-.173c-.217.09-1.119.812-1.119.812s1.15-.13 1.365-.218a.292.292 0 00.176-.42zM8.946 6.38a.294.294 0 00.172-.421c-.089-.218-.81-1.12-.81-1.12s.128 1.15.217 1.366a.293.293 0 00.421.176zm2.576-.251a.294.294 0 00.378-.255c.045-.23-.053-1.382-.053-1.382s-.53 1.027-.576 1.257a.292.292 0 00.251.38zm3.504 5.249a.296.296 0 00.255.378c.229.045 1.382-.053 1.382-.053s-1.028-.531-1.257-.577a.292.292 0 00-.38.252zm-5.244 3.508a.294.294 0 00-.378.255c-.046.229.052 1.383.052 1.383s.532-1.029.577-1.258a.293.293 0 00-.25-.38zM6.277 9.637a.293.293 0 00-.255-.379c-.229-.046-1.381.053-1.381.053s1.027.532 1.256.576a.292.292 0 00.38-.25zm6.851-2.841a.296.296 0 00.447-.091c.13-.195.481-1.298.481-1.298s-.885.747-1.015.941a.293.293 0 00.087.448zm1.232 6.19a.294.294 0 00.091.447c.194.13 1.297.481 1.297.481s-.747-.884-.94-1.014a.29.29 0 00-.363-.012.292.292 0 00-.084.098zm-6.185 1.233a.294.294 0 00-.447.09c-.13.194-.481 1.298-.481 1.298s.885-.747 1.015-.941a.292.292 0 00-.087-.447zM6.944 8.027a.296.296 0 00-.092-.447c-.193-.13-1.296-.48-1.296-.48s.746.885.94 1.014a.294.294 0 00.448-.087zm7.416 0a.294.294 0 00.447.087c.194-.13.94-1.015.94-1.015s-1.102.351-1.296.481a.294.294 0 00-.09.447zm-1.232 6.192a.294.294 0 00-.087.447c.13.194 1.015.94 1.015.94s-.35-1.103-.48-1.297a.292.292 0 00-.448-.09zm-6.184-1.233a.293.293 0 00-.448-.086c-.194.13-.94 1.014-.94 1.014s1.103-.35 1.296-.48a.293.293 0 00.092-.448zm1.231-6.19a.295.295 0 00.087-.448c-.13-.194-1.015-.941-1.015-.941s.35 1.103.48 1.298a.293.293 0 00.448.091zm6.851 2.841a.293.293 0 00.38.25c.23-.044 1.257-.576 1.257-.576s-1.153-.099-1.382-.053a.293.293 0 00-.255.379zm-3.503 5.249a.293.293 0 00-.252.38c.045.23.576 1.257.576 1.257s.099-1.153.053-1.382a.292.292 0 00-.377-.255zm-5.246-3.508a.294.294 0 00-.38-.252c-.229.046-1.256.577-1.256.577s1.152.098 1.381.053a.295.295 0 00.255-.378zm3.505-5.249a.293.293 0 00.251-.38c-.045-.23-.577-1.257-.577-1.257s-.098 1.153-.052 1.382a.292.292 0 00.378.255zm.169 12.886a1.276 1.276 0 00-.307.051c-.136.019-.268.067-.404.09l-.055.009-.091.008a.297.297 0 010 .149.17.17 0 01-.039.06.218.218 0 01-.064.053.228.228 0 01-.076.018.192.192 0 01-.152-.054.754.754 0 01-.081.014.303.303 0 01-.078 0 .765.765 0 01-.08-.027.455.455 0 01-.076-.04.682.682 0 00-.27.219.327.327 0 00-.05.154.43.43 0 00.043.204c.01.019.018-.067.052-.078a.517.517 0 01.194-.098c.06-.03.052 0 .027.049-.005.024-.038.117.007.07.201-.076.414-.117.628-.121.31-.033.62-.04.93-.043.292 0 .584.008.871.017.138.019.278.023.417.012.034-.008.085-.01.109-.029a.505.505 0 00-.205-.046h-.556a1.696 1.696 0 01-.459-.081c-.039-.016-.075-.053-.108-.014a.635.635 0 01-.471-.014c.067-.095.15-.176.224-.265a2.165 2.165 0 01-.18-.037c.11-.073.205-.155.308-.233l-.008.003z" fill="#FEC50C"/><path d="M14.495 20.024c-.212.126-.373-.098-.545-.166-.127.069-.139.298-.256.407-.142.16-.314-.045-.302-.204-.168.143-.254.465-.526.422-.13-.11-.226-.327-.327-.074-.08.123-.296.297-.407.109-.033-.165-.116-.358-.206-.097a.348.348 0 01-.449.24c-.103-.085.084-.402-.049-.379-.198.131-.313.457-.59.436-.109-.12.065-.327-.052-.459-.14.18-.293.436-.534.46-.117-.094 0-.365-.07-.405-.247.148-.508.412-.818.327.12-.463.626-.626 1.052-.662.731-.09 1.502.075 2.206-.189.114-.07.389-.168.29-.327-.086-.126.227-.077.258-.225-.02-.188.143-.162.301-.178.712-.032 1.417.119 2.123.144.053.345-.327.589-.639.482-.147.024-.368-.34-.326-.076-.03.139-.01.322-.136.415l.002-.001zm-6.052-.708c.165.15.28-.028.436-.094.516-.177.966-.488 1.41-.798.27-.223.503-.511.864-.584.705-.218 1.453-.188 2.16-.384.54-.738 1.454-1.001 2.22-1.425.173-.054.24-.195.294-.352.292-.47.69-.864 1.163-1.152.223-.132.485-.18.74-.136a1.238 1.238 0 01-.398.776c.17 0 .317-.109.489-.109.059.309-.275.47-.451.663.098.023.476.051.27.15-.262.183-.562.308-.805.52.224.04.25.088.022.169-.123.084-.36.109-.383.276.17.109-.078.207-.173.24-.182.043-.374.122-.132.26-.091.138-.287.168-.448.155.05.156.12.327-.084.401a3.135 3.135 0 01-1.563.654 3.355 3.355 0 002.065-.466c.08-.096.503-.199.267-.28-.11-.045-.351-.098-.368-.183.327-.204.749-.13 1.105-.253.01-.115-.27-.083-.375-.109-.25-.02-.234-.084.006-.109.304-.08.648-.097.904-.294-.208-.097-.47-.012-.693-.09.377-.166.822-.183 1.16-.43.153-.172-.198-.118-.3-.11-.208.037-.305-.064-.068-.15.405-.299.917-.493 1.199-.925.067-.097.158-.389-.057-.284-.282.094-.53.412-.852.314.634-.492 1.237-1.052 1.67-1.733.023-.196-.285-.218-.365-.063-.407.393-.776.856-1.297 1.102a8.193 8.193 0 001.272-1.645c.078-.175.285-.388.172-.583-.181-.15-.408-.013-.503.167-.317.414-.557.897-.964 1.234.356-.682.726-1.406.734-2.192 0-.161-.034-.399-.253-.368-.174.03-.133.29-.203.423-.158.536-.232 1.117-.556 1.586.072-.436.2-.89.102-1.33-.045-.196-.363-.11-.326.083-.38 1.922-1.668 3.598-3.355 4.58a7.232 7.232 0 01-2.506.847c-.235.051-.49.02-.716.101-.545.42-.878 1.121-1.57 1.341-.31.154-.715.186-.936.474a.256.256 0 00-.023.12" fill="#FEC50C"/><path d="M10.513 17.365c-.102.186-.162.4-.293.565-.395-.36-.967-.348-1.469-.372-.414-.021-.862-.06-1.183-.355-.336-.276-.611-.634-.987-.858-.343-.093-.69-.21-.965-.446-.59-.481-.929-1.194-1.505-1.69a3.154 3.154 0 00-.362-.285c-.117.029-.064.282-.208.153-.077-.056-.272-.061-.29.016.177.232.353.498.377.795-.12.012-.333-.025-.393.02.161.24.363.45.597.62-.109.019-.327.009-.375.054.231.187.479.38.78.428.063.082-.089.239.039.309.074.03.319.081.15.165a.137.137 0 00.075.257c.094.048.304.06.32.143-.082.083-.34.184-.12.263.206.117.436.184.673.196-.118.099-.263.155-.384.248.545.319 1.141.527 1.734.727.235.083.475.15.719.2a5.91 5.91 0 01-2.045-.54 18.25 18.25 0 00-1.017-.416c.15-.079.327-.098.482-.166-.327-.066-.68-.086-.965-.265.044-.079.21-.082.301-.122.172-.042.28-.092.036-.11-.245-.066-.526-.036-.742-.184.014-.089.24-.058.333-.096a.68.68 0 00.336-.11c-.378-.157-.871-.045-1.171-.38-.069-.128.212-.025.293-.047.203 0 .422.066.616-.017-.553-.243-1.144-.47-1.566-.919-.047-.072-.186-.269-.073-.293.327.043.564.401.915.346.047-.063-.204-.166-.266-.256-.512-.437-1.007-.915-1.366-1.491-.024-.192.277-.218.356-.072.392.376.745.817 1.232 1.074.173.083-.1-.1-.136-.166a8.747 8.747 0 01-1.19-1.692c-.057-.109-.15-.312.018-.372.169-.084.336.03.422.176.327.417.574.913.986 1.261-.351-.681-.726-1.399-.736-2.18.01-.152.019-.382.225-.377.173-.026.146.197.202.302.17.576.246 1.2.588 1.71-.077-.428-.188-.873-.11-1.303a.168.168 0 01.283-.1c.085.208.102.464.18.686a6.932 6.932 0 002.71 3.714 7.13 7.13 0 003.596 1.236c.116.01.232.013.348.02m-1.63 1.991a.07.07 0 100-.139.07.07 0 000 .138z" fill="#FEC50C"/><path d="M8.879 19.247a.029.029 0 01.028.034.028.028 0 01-.051.01.029.029 0 01.004-.036.028.028 0 01.019-.008z" fill="#FEC50C"/><path d="M8.88 19.326a.047.047 0 01-.048-.047.047.047 0 01.047-.047.048.048 0 01.047.047.047.047 0 01-.047.047z" fill="#00AFCA"/></g></svg>