<svg width="301" height="331" fill="none" xmlns="http://www.w3.org/2000/svg"><path d="M175.329 226.658c40.365 16.223 28.553 39.223-.031 48.882-2.008 16.136 6.717 33.892-11.497 45.005-4.111 14.635-16.103 10.718-19.497 7.14-6.434 5.608-14.662 1.959-16.513.403-2.709 2.788-8.26 3.807-13.079.584-7.733.174-15.395.126-23.317.126-6.41 0-16.213-.347-24.434-.458-6.504 4.092-10.654 2.362-14.174-1.232-4.606 3.847-10.37 4.794-16.3.845-13.347 7.038-18.458-4.976-18.552-8.396-9.048-5.449-11.489-14.485-10.481-27.58-13.394-.98-5.843-43.804.283-56.631-3.449-55.873 37.845-93.453 83.65-93.453 48.31-.008 84.194 38.986 83.942 84.765z" fill="#232323"/><path d="M164.171 229.39c11.725 1.58 32.191 8.412 32.191 19.059-1.063 19.612-24.797 20.141-31.789 26.949-3.024 3.618-.008 6.532 3.567 3.617.425 15.339 2.693 27.51-5.591 33.631-.583-5.963-10.442-8.624-14.347-6.966 6.315-34.508-3.253-52.358-8.702-63.218 12.552-.632 15.505-15.094-2.85-22.644 20.017-35.393-23.946-57.879-45.617-37.494-19.788-20.385-64.728 1.62-46.735 36.009-9.693 4.091-27.269 17.021-2.291 25.203-14.576 21.571-10.394 50.597-8.945 61.986-8.23-2.014-12.82 3.491-13.852 5.434-5.52-.426-4.299-17.423-4.362-21.87 7.457-5.924 14.072-18.443 16.032-26.807 1.056-6.951-4.921-4.763-5.094-3.531-1.426 11.587-17.04 32.96-18.356 27.723-2.622-8.443-5.378-20.314 8.127-58.178-2.11-42.762 33.072-79.165 76.531-79.165 40.577 0 73.894 32.059 76.217 75.863-6.331-1.208-7.158 3.641-4.134 4.399z" fill="#9E9E9E"/><path d="M299.95 202.528c0-11.879-22.545-21.515-50.357-21.515-27.813 0-50.018 8.854-50.018 20.733 0 .624-.024 8.989-.056 20.781-17.016.15-29.379 10.291-30.812 29.413-2.559 34.287 20.969 30.819 30.655 26.949-.047 15.173-.095 27.075-.126 29.089 7.536 17.906 40.939 21.444 50.357 21.444 9.827 0 42.616-2.993 50.357-20.764.142-32.273 0-98.445 0-106.13zm-100.423 65.58c-5.835 2.33-19.977 4.407-18.434-16.215.859-11.469 8.253-17.566 18.434-17.693v33.908z" fill="#232323"/><path d="M249.711 218.333c25.124 0 45.491-7.157 45.491-15.986s-20.367-15.986-45.491-15.986-45.491 7.157-45.491 15.986 20.367 15.986 45.491 15.986z" fill="#E31724"/><path d="M113.546 227.929c-8.843 1.003-17.119-1.998-22.686-7.456-5.402 5.418-13.418 8.491-22.049 7.701-14.717-1.343-25.647-13.419-24.41-26.957 1.236-13.538 14.158-23.418 28.875-22.076 6.993.64 13.135 3.705 17.513 8.199 4.315-4.447 10.347-7.535 17.253-8.325 14.82-1.682 28.072 7.906 29.6 21.412 1.512 13.506-9.268 25.828-24.096 27.502z" fill="#F2F2F2"/><path d="M71.844 210.728c8.491-.217 15.329-2.182 15.273-4.388-.056-2.207-6.985-3.819-15.476-3.602-8.49.217-15.329 2.182-15.273 4.388.057 2.207 6.985 3.82 15.476 3.602zm54.909-3.795c.056-2.207-6.782-4.172-15.272-4.389-8.491-.217-15.42 1.396-15.476 3.602-.056 2.207 6.781 4.172 15.272 4.389 8.491.217 15.42-1.396 15.476-3.602zM67.76 177.139c8.49-.239 15.318-2.365 15.252-4.751-.067-2.385-7.004-4.125-15.494-3.886-8.49.238-15.318 2.365-15.252 4.75.067 2.385 7.004 4.125 15.494 3.887zm58.986-5.807c.067-2.385-6.762-4.512-15.252-4.75-8.49-.239-15.426 1.501-15.493 3.887-.067 2.385 6.762 4.512 15.252 4.75 8.49.239 15.427-1.501 15.493-3.887z" fill="#232323"/><path d="M44.322 326.603c5.706 0 10.331-5.241 10.331-11.705 0-6.465-4.625-11.706-10.33-11.706-5.707 0-10.332 5.241-10.332 11.706 0 6.464 4.625 11.705 10.331 11.705zm100.509-93.192c0-3.547-3.85-7.622-12.292-9.257-7.543 6.737-27.269 12.29-41.498 1.745-11.205 10.545-36.734 4.992-43.632-3.404-7.056 2.591-13.78 7.464-13.78 11.003 0 4.233 11.74 3.949 29.537 13.119 15.331 6.279 20.111 10.196 26.064 10.196 7.552 0 13.883-5.465 26.82-10.544 24.049-11.5 28.781-6.99 28.781-12.858zm-8.929 93.192c5.706 0 10.331-5.241 10.331-11.705 0-6.465-4.625-11.706-10.331-11.706-5.706 0-10.331 5.241-10.331 11.706 0 6.464 4.625 11.705 10.331 11.705z" fill="#FAFF00"/><path d="M249.711 218.333c14.056 0 26.624-2.243 34.963-5.758-2.465-6.113-17.324-10.813-35.294-10.813-17.733 0-32.434 4.581-35.191 10.576 8.347 3.649 21.151 5.995 35.522 5.995z" fill="#232323"/><path d="M295.469 303.777c0-6.785-.267-63.115-.267-92.11-11.607 9.202-35.183 11.745-45.223 11.745-10.93 0-30.427-2.141-45.491-11.745-.268 28.6 0 85.72 0 92.11 0 11.302 20.371 20.472 45.491 20.472 25.119 0 45.49-9.17 45.49-20.472z" fill="#E31724"/><path d="M145.249 302.821c3.15-12.116.929-45.084-9.654-59.253-26.372 9.754-34.175 17.439-44.578 18.142-11.614-.142-27.63-12.242-45.514-16.958-7.228 9.289-13.394 35.582-9.142 56.884 9.67-5.75 17.584-.087 19.741 4.565 6.591-3.491 19.513 1.801 15.56 16.595 5.804.552 31.585 0 38.451 0-3.638-10.158 4.433-19.873 14.032-17.069 9.339-11.428 17.82-5.181 21.104-2.906z" fill="#F2F2F2"/><path d="M121.287 317.97c0-4.953 2.709-9.305 1.197-9.305-6.646 0-9.457 4.495-9.457 9.447 0 4.952 4.331 9.478 9.457 8.498 6.646-1.271-1.197-3.688-1.197-8.64zm38.9.521c0-4.96-3.804-9.826-9.41-9.826-2.497 0-.701 3.689-.701 8.657s-6.875 6.587-.016 8.728c5.583 1.737 10.127-2.599 10.127-7.559zm-130.251-.924c0-4.992 2.118-8.957 1.031-9.044-5.236-.41-9.504 4.052-9.504 9.044 0 4.992 4.488 9.383 9.701 8.759 5.646-.671-1.229-3.767-1.229-8.759zm38.679.221c0-5.102-4.646-9.667-10.332-9.241-2.354.174 0 3.539 0 8.641s-5.945 7.867.213 9.17c5.252 1.122 10.119-3.459 10.119-8.57z" fill="#FAFF00"/><path d="M244.002 202.852s.102 4.723 5.52 4.305c6.89-1.019 7.489-20.449 13.064-25.409 6.347-6.635 19.426-9.755 16.26-17.534 0 0-1.157-3.76-5.803-6.193-4.638-2.432 3.055-9.099-10.024-10.054-17.726.79-18.938-1.959-6.016-12.432 10.969-6.722 18.04-2.646 22.891-10.584 3.378-8.68-16.458-4.976-15.458-11.958 0 0 .756-3.159 3.008-4.992 2.252-1.832 1.898-3.388-4.22-5.71-6.119-2.33-1.339-10.655 4.078-15.52 8.442-8.04 24.545-8.957 25.813-16.65.913-10.931-17.97-13.158-21.765-19.398 0 0-2.74-8.57-12.237-8.68-10.599-3.12 10.969-14.865 11.127-21.958.157-7.092-8.072-8.38-12.922-11.057-4.851-2.678-9.001-6.208-8.646-9.028 0 0-3.308 4.376-2.536 11.642.772 7.267-17.654 24.335-19.41 26.033-1.756 1.698-15.718 17.708 4.008 28.71 15.615 5.505 9.984 15.939 10.339 23.632.354 7.685 8.858 5.853 6.89 9.312-1.969 3.459-7.457 2.749-5.489 8.396 1.969 5.639-6.961 6.84-5.134 13.048s12.308 4.091 10.898 9.667c-1.409 5.577-29.537 12.661-21.52 30.441 5.165 8.466 17.087 2.859 15.615 15.235-1.371 9.731 8.102 3.918 7.032 14.525-.701 6.058-3.977 2.457-3.497 12.353.016-.008-.63.735-1.866-.142z" fill="#F2F2F2"/><path d="M91.364 226.144s9.008 17.51 34.435 6.713c1.055-.789-.315-3.119-2.583-1.903-2.268 1.224-17.339 7.259-31.852-4.81zm-.638.071s-9.008 17.511-34.435 6.714c-1.055-.79.315-3.12 2.583-1.904 2.276 1.217 17.34 7.251 31.852-4.81z" fill="#1785E5"/><path d="M199.787 231.326v-4.281c-14.489.039-25.615 8.577-26.828 24.816-2.197 29.406 16.457 27.573 26.828 23.024v-4.273c-6.575 2.756-23.544 5.615-21.725-18.719 1-13.435 9.732-20.536 21.725-20.567z" fill="#E31724"/></svg>