<svg width="213" height="219" fill="none" xmlns="http://www.w3.org/2000/svg"><path d="M207.628 118.585c-.469-3.065-5.917-12.742-6.136-15.679C208.342 47.918 159.097 0 106.454 0 49.364 4.103 10.227 41.379 11.41 102.118c-8.503 13.402-20.19 74.093-1.104 71.535 1.184 24.893 5.149 25.968 9.724 31.157 1.537 5.85 9.43 18.495 22.478 10.057 6.448 5.623 12.901 5.58 20.221-.568 3.227 4.097 8.974 7.009 16.452.708 5.667.238 18.69.238 26.925.238 7.137 0 17.513-.354 25.626-.317 5.289 4.396 13.799 4.17 17.184-.471 5.277 4.806 13.146 6.619 20.386.08 12.505 8.664 21.594-1.85 22.32-11.387 7.656-5.77 9.992-10.875 9.754-31.079 14.048 8.872 14.371-26.639 6.252-53.486z" fill="#232323"/><path d="M151.581 58.212c3.636 16.394-6.277 32.538-22.137 36.06-9.266 2.058-18.507-.64-25.309-6.508-3.69 8.194-10.925 14.556-20.19 16.614-15.866 3.523-31.671-6.906-35.307-23.294-3.636-16.394 6.277-32.543 22.143-36.066 9.266-2.058 18.501.64 25.315 6.502 3.69-8.194 10.919-14.556 20.185-16.613 15.853-3.517 31.665 6.911 35.3 23.305z" fill="#F2F2F2"/><path d="M196.296 105.428c6.063-58.145-40.205-100.055-89.798-100.055S11.064 47.68 16.121 104.17c-18.52 41.36-11.48 62.003-6.966 65.075 4.056 2.759 21.526-19.936 22.563-35.609 1.104.159 2.599.788 3.776 1.105-.25 7.431-8.473 31.634-20.16 36.714-.775 14.214-.147 22.493 6.704 27.811 2.952-10.52 10.156-10.99 16.53-9.451-4.8-25.131-2.153-50.55 9.328-66.937-19.655-4.915-3.557-28.777 0-30.846-17.02-40.335 22.807-63.927 47.366-45.22 14.323-28.05 62.335-20.118 61.549 21.963 9.131 2.045 29.359 13.493 8.814 31.56 9.919 17.567 14.738 67.151 8.125 88.601 6.234-1.136 15.555 2.655 16.793 10.459 6.57-3.151 8.76-17.75 7.412-27.69-16.135-11.424-19.343-29.387-19.679-36.475 1.416-.159 3.544-.55 4.917-.471-1.232 18.281 20.679 39.205 22.552 35.218 6.484-13.86 2.83-43.515-9.449-64.549z" fill="#9E9E9E"/><path d="M51.547 214.977c7.035 0 12.737-6.356 12.737-14.196s-5.702-14.196-12.737-14.196c-7.034 0-12.736 6.356-12.736 14.196s5.702 14.196 12.736 14.196z" fill="#FAFF00"/><path d="M137.679 26.352a2.51 2.51 0 01-3.404.293c-4.099-3.217-8.198-4.677-12.218-4.34-4.788.402-8.509 3.26-10.437 5.097a2.507 2.507 0 01-3.263.153l-.366-.28a2.52 2.52 0 01-.196-3.817c2.52-2.405 7.327-6.057 13.732-6.618 5.477-.483 10.894 1.367 16.14 5.489a2.529 2.529 0 01.317 3.687l-.305.336zM49.621 44.658a2.514 2.514 0 003.307-.867c2.781-4.409 6.155-7.162 10.059-8.188 4.642-1.227 9.107.22 11.54 1.3a2.506 2.506 0 003.124-.952l.25-.39a2.528 2.528 0 00-1.092-3.664c-3.178-1.423-8.93-3.248-15.158-1.63-5.326 1.386-9.81 4.945-13.366 10.587a2.536 2.536 0 00.94 3.584l.396.22z" fill="#232323"/><path d="M171.656 86.476c-1.464 8.677-19.118 24.704-58.414 42.356 0 0-1.323-5.941-.006 0-43.066.647-65.843-6.399-70.833-13.641-4.995-7.247 7.967-19.953 7.967-19.953h.012c7.79 10.966 21.149 16.852 34.508 13.884 8.894-1.978 16.122-7.504 20.685-14.88 7.253 4.751 16.14 6.699 25.028 4.72 13.359-2.967 22.972-13.957 25.4-27.194h.006c-.006.006 17.105 6.026 15.647 14.708z" fill="#FAFF00"/><path d="M114.458 132.36s24.162-9.531 48.33-29.546c10.522 14.85 13.487 71.779 6.948 84.272 0 0-13.274-10.594-24.797 3.425-5.618-3.23-20.319 1.184-15.701 19.856H83.842s3.355-25.229-18.641-19.856c-4.276-8.096-14.195-11.344-23.522-5.141 0 0-6.82-38.918 9.357-61.491 13.622 6.552 43.603 9.794 63.422 8.481z" fill="#F2F2F2"/><path d="M159.147 215.093c7.341 0 13.292-6.225 13.292-13.903 0-7.678-5.951-13.903-13.292-13.903s-13.292 6.225-13.292 13.903c0 7.678 5.951 13.903 13.292 13.903z" fill="#FAFF00"/><path d="M186.978 203.962c.598-5.733-3.562-10.972-8.588-11.65-6.466-.879-2.001 3.169-3.063 10.398-1.128 7.687-7.21 8.841.891 10.368 4.862.91 10.163-3.383 10.76-9.116zm-106.371 1.19c.598-5.733-3.562-10.972-8.588-11.649-6.467-.879-2.001 3.169-3.063 10.398-1.128 7.687-7.21 8.841.89 10.367 4.856.91 10.157-3.382 10.761-9.116zm61.172-3.602c.872-8.017.939-10.179-5.039-7.846-3.623 2.07-5.527 6.026-4.917 11.936.61 5.911 5.625 9.306 8.528 9.306 7.497 0 4.557-2.821 2.519-7.04a11.722 11.722 0 01-1.091-6.356zm-106.018-.476c.872-8.017.94-10.178-5.039-7.846-3.623 2.07-5.526 6.027-4.916 11.937.61 5.91 5.624 9.305 8.528 9.305 7.496 0 4.556-2.821 2.519-7.04a11.642 11.642 0 01-1.092-6.356z" fill="#FAFF00"/><path d="M70.055 84.729c-.86.305-1.805-.177-2.03-1.026a12.872 12.872 0 01-.367-4.549c.732-7.406 7.674-12.81 15.476-12.034 5.612.556 10.278 4.14 12.09 9.11.305.83-.214 1.721-1.11 1.899-.744.146-1.507-.25-1.757-.94-1.415-3.927-5.087-6.754-9.51-7.187-6.13-.605-11.578 3.633-12.157 9.452a10.043 10.043 0 00.299 3.614c.189.696-.226 1.404-.934 1.66zm63.775-21.797c.878-.238 1.385-1.178 1.08-2.003a12.919 12.919 0 00-2.294-3.944c-4.819-5.666-13.597-6.142-19.569-1.056-4.294 3.657-6.087 9.268-4.739 14.385.225.855 1.152 1.294 1.994.928.696-.305 1.092-1.069.903-1.777-1.073-4.03.336-8.45 3.715-11.332 4.691-3.993 11.584-3.62 15.372.83a10.11 10.11 0 011.818 3.145c.244.677.994 1.02 1.72.824z" fill="#232323"/></svg>