<svg width="212" height="219" fill="none" xmlns="http://www.w3.org/2000/svg"><path d="M206.659 119.153c-.468-3.048-5.89-12.67-6.108-15.591C207.369 48.885 158.009 0 105.614 0 48.792 4.074 10.179 42.377 11.357 102.779c-8.464 13.326-20.096 73.674-1.1 71.13 1.179 24.753 5.125 25.821 9.679 30.982 1.53 5.816 9.386 18.389 22.372 9.999 6.418 5.591 12.841 5.549 20.127-.565 3.211 4.074 8.93 6.97 16.374.705 5.64.236 18.603.236 26.799.236 7.103 0 17.43-.352 25.505-.315 5.264 4.371 13.734 4.146 17.103-.468 5.252 4.778 13.084 6.581 20.29.079 12.447 8.615 21.493-1.84 22.215-11.323 7.62-5.737 9.945-10.813 9.708-30.902 13.983 8.815 14.304-26.495 6.23-53.184z" fill="#232323"/><path d="M157.992 70.347c0 16.696-13.114 30.228-29.282 30.228-9.441 0-17.843-4.614-23.192-11.772-5.355 7.158-13.752 11.772-23.199 11.772-16.174 0-29.288-13.532-29.288-30.228S66.145 40.112 82.32 40.112c9.441 0 17.838 4.614 23.199 11.772 5.355-7.158 13.745-11.772 23.192-11.772 16.168 0 29.282 13.54 29.282 30.235z" fill="#F2F2F2"/><path d="M195.379 106.07c6.034-57.816-40.016-99.489-89.376-99.489-49.36 0-94.992 42.067-89.959 98.232-18.432 41.126-11.426 61.653-6.933 64.707 4.037 2.744 21.425-19.823 22.457-35.407 1.1.157 2.587.783 3.759 1.098-.25 7.389-8.433 31.455-20.066 36.507-.771 14.133-.146 22.366 6.672 27.654 2.939-10.461 10.11-10.928 16.454-9.398-4.779-24.989-.741-57.149 10.679-73.444-28.201-15.924-2.313-33.646 1.232-35.698-8.044-41.503 33.92-57.482 55.705-35.225 19.106-22.573 65.867-6.278 54.526 35.899 9.089 2.034 27.564 23.155 1.16 34.599 9.872 17.467 17.819 51.654 11.244 72.982 6.205-1.129 15.482 2.641 16.714 10.4 6.539-3.133 8.719-17.649 7.377-27.533-16.059-11.359-19.252-29.22-19.586-36.269 1.408-.158 3.527-.546 4.893-.468-1.226 18.178 20.582 38.984 22.446 35.019 6.454-13.763 2.823-43.251-9.398-64.166z" fill="#9E9E9E"/><path d="M122.851 90.557c5.191 0 9.399-7.73 9.399-17.266 0-9.536-4.208-17.267-9.399-17.267-5.19 0-9.398 7.73-9.398 17.267 0 9.536 4.208 17.266 9.398 17.266z" fill="#232323"/><path d="M51.312 214.999c7 0 12.677-6.32 12.677-14.116 0-7.796-5.676-14.115-12.677-14.115-7.002 0-12.677 6.319-12.677 14.115s5.675 14.116 12.677 14.116z" fill="#FAFF00"/><path d="M118.869 73.297c2.991 0 5.415-2.949 5.415-6.587s-2.424-6.587-5.415-6.587-5.416 2.95-5.416 6.587c0 3.638 2.425 6.588 5.416 6.588z" fill="#F2F2F2"/><path d="M89.992 90.557c5.19 0 9.398-7.73 9.398-17.266 0-9.536-4.207-17.267-9.398-17.267-5.19 0-9.398 7.73-9.398 17.267 0 9.536 4.208 17.266 9.398 17.266z" fill="#232323"/><path d="M86.01 73.297c2.99 0 5.415-2.949 5.415-6.587S89 60.123 86.009 60.123c-2.99 0-5.415 2.95-5.415 6.587 0 3.638 2.424 6.588 5.415 6.588z" fill="#F2F2F2"/><path d="M146.195 32.596c-.99.85-2.477.802-3.394-.127-3.655-3.68-7.522-5.622-11.536-5.78-4.778-.188-8.803 2.18-10.934 3.752-.99.735-2.368.62-3.242-.249l-.328-.321a2.505 2.505 0 01.273-3.789c2.781-2.07 7.978-5.081 14.377-4.85 5.47.2 10.595 2.683 15.269 7.394 1.027 1.038.972 2.732-.139 3.68l-.346.29zm-82.509 0c.99.85 2.477.802 3.394-.127 3.654-3.68 7.522-5.622 11.535-5.78 4.778-.188 8.803 2.18 10.934 3.752.99.735 2.368.62 3.243-.249l.328-.321a2.504 2.504 0 00-.274-3.789c-2.78-2.07-7.978-5.081-14.377-4.85-5.47.2-10.594 2.683-15.269 7.394-1.026 1.038-.971 2.732.14 3.68l.346.29z" fill="#232323"/><path d="M171.405 102.111c-3.291 8.105-23.897 19.859-65.886 28.516 0 0-.006-6.053-.006 0-41.983-8.657-62.595-20.411-65.886-28.516-3.29-8.111 12.04-17.65 12.04-17.65h.012c5.203 12.325 16.914 20.922 30.538 20.922 9.065 0 17.28-3.806 23.302-9.98 6.023 6.174 14.237 9.98 23.302 9.98 13.618 0 25.329-8.597 30.538-20.921h.006s15.33 9.538 12.04 17.649z" fill="#FAFF00"/><path d="M105.516 134.586s26.993-5.13 52.729-16.647c10.929 13.751 13.515 57.931 10.692 69.327 0 0-13.211-10.534-24.68 3.406-5.592-3.212-20.223 1.177-15.627 19.743H83.447s3.34-25.086-18.554-19.743c-4.256-8.051-14.128-11.281-23.411-5.112 0 0-5.531-46.202 12.173-67.627 11.875 5.585 37.284 14.224 51.861 16.653z" fill="#F2F2F2"/><path d="M158.403 215.115c7.307 0 13.23-6.189 13.23-13.824s-5.923-13.824-13.23-13.824c-7.306 0-13.229 6.189-13.229 13.824s5.923 13.824 13.229 13.824z" fill="#FAFF00"/><path d="M186.108 204.041c.595-5.701-3.546-10.91-8.549-11.584-6.435-.874-1.991 3.151-3.048 10.339-1.123 7.644-7.176 8.791.887 10.309 4.833.905 10.108-3.357 10.71-9.064zm-105.879 1.184c.595-5.701-3.546-10.91-8.549-11.584-6.435-.875-1.991 3.151-3.048 10.339-1.123 7.644-7.176 8.791.887 10.309 4.833.904 10.115-3.364 10.71-9.064zm60.889-3.582c.868-7.972.935-10.121-5.015-7.802-3.606 2.058-5.501 5.993-4.893 11.87.607 5.876 5.597 9.252 8.487 9.252 7.462 0 4.536-2.805 2.508-7a11.505 11.505 0 01-1.087-6.32zm-105.519-.468c.868-7.971.934-10.121-5.015-7.801-3.607 2.058-5.501 5.992-4.894 11.869.607 5.877 5.598 9.252 8.488 9.252 7.461 0 4.535-2.805 2.507-7a11.523 11.523 0 01-1.087-6.32z" fill="#FAFF00"/></svg>