<svg width="339" height="175" fill="none" xmlns="http://www.w3.org/2000/svg"><g opacity=".71" filter="url(#filter0_f_644_7314)"><path d="M323.986 139.259c1.053-14.725-56.195-33.395-125.489-36.838-69.294-3.442-124.417 7.494-125.462 22.211-1.044 14.717 20.896 29.712 90.189 33.162 69.294 3.45 159.717-3.818 160.762-18.535z" fill="#828282" fill-opacity=".7"/></g><path d="M246.601 65.47c0 5.954-5.517 10.778-12.318 10.778-.65 0-1.292-.045-1.912-.134.03.788.053 1.568.068 2.341.612 8.934-1.464 19.519-6.062 30.333.679.387 1.336.848 1.956 1.39 4.344 3.784 5.225 9.856 1.97 13.565a7.818 7.818 0 01-3.247 2.2c3.292 4.75 2.904 11.201-1.217 15.312-2.322 2.311-5.383 3.441-8.466 3.404a9.586 9.586 0 01-1.373 3.709c-3.181 5.039-10.43 6.206-16.193 2.601a13.719 13.719 0 01-3.068-2.601 108.8 108.8 0 01-4.637 3.694c-11.198 8.176-22.396 8.176-35.834 7.433-2.24 4.459-11.945 9.662-18.664 10.405-7.689.476-17.551 1.264-25.89-2.252-4.957.513-13.9 1.16-16.11 1.13-2.83-.037-4.032.104-9.34 2.639-7.846 3.619-21.5 4.192-36.566 3.062-15.066-1.122-26.406-11.238-32.58-16.032C10.944 153.66 0 152.396 0 146.383c.194-7.789 5.8-9.714 10.519-10.748 3.397-.661 6.719 1.948 14.423-4.459 7.884-7.069 12.557-10.235 15.252-11.625-6.86-10.302-10.728-22.157-10.683-35.083-1.65-50.587 48.37-78.088 99.881-82.548 7.272-.713 14.058-1.026 20.388-.966 7.235-1.264 15.79-1.955 25.898 2.453 20.784 4.928 34.192 14.902 42.703 26.825a11.81 11.81 0 014.33-.81c5.771 0 10.452 3.998 10.452 8.919 0 .252-.015.498-.038.743h.038c6.599 0 11.945 5.493 11.945 12.264a12.5 12.5 0 01-1.919 6.675c2.113 1.932 3.412 4.563 3.412 7.447z" fill="#232323"/><path d="M120.001 130.373s8.555 6.949 11.974 8.287c-2.217 0-15.513-.208-19.686 2.631-.919-1.828-1.814-4.482-3.838-6.08 2.382-.067 6.107 1.717 11.55-4.838zm72.773 11.015c-5.337 6.021-16.192 12.532-35.498 11.053 0 0-.344-4.051-4.786-7.396 0 0 24.659 1.97 40.284-3.657zM113.401 32.595c-7.353 1.175-11.728 5.33-12.176 6.095-2.964-.98-7.98-1.94-11.355-1.94-14.64 0-26.592 10.54-27.16 23.354 0 7.225 1.195 13.156 7.078 18.166-6.555 4.667-8.914 12.152-8.914 19.86 0 6.065 3.068 11.915 6.577 16.248-1.889-.327-14.267-1.754-20.508 2.081 0 0-17.47-24-6.435-55.768C51.542 28.931 95.245 9.636 145.884 8.372c0 0 15.752-8.92 30.84 1.97 15.087 10.889 11.885 25.821 6.786 37.93-5.092 12.114-8.563 19.109-16.693 19.317-8.13.215-20.366-13.38-24.256-24.432-3.889-11.06-4.457-19.622-4.785-27.367-.373-2.914-4.711-2.304-4.853-.097-.141 2.208.516 13.662 1.225 16.196-1.979 1.316-7.779 4.505-9.384 6.058-1.508-1.687-4.009-6.526-11.363-5.352zm39.089 121.674c0 6.17-10.705 11.172-23.904 11.172-13.207 0-23.912-5.002-23.912-11.172 0-6.169 10.705-11.171 23.912-11.171 13.199 0 23.904 5.002 23.904 11.171zm63.412-113.223c-1.552-1.204-3.389-6.622-23.404-12.256 0 0 .679-6.757-4.531-13.729 0 0 19.798 6.192 27.935 25.985z" fill="#9E9E9E"/><path d="M112.931 97.684c0 12.368-10.639 22.692-23.763 22.692-13.124 0-24.569-10.443-24.569-22.811 0-7.619 4.718-14.918 10.892-18.968-5.591-4.096-9.078-9.767-9.078-16.91 0-12.368 9.026-21.488 24.129-21.488 14.535 0 24.083 9.12 24.083 21.488 0 7.708-3.904 13.966-10.28 17.995 5.406 4.11 8.586 10.948 8.586 18.002z" fill="#F2F2F2"/><path d="M95.633 76.248c-1.18-.023-2.113-.729-2.075-1.576l.94-22.21c.038-.847 1.023-1.508 2.21-1.486 1.18.022 2.113.729 2.076 1.576l-.941 22.209c-.037.847-1.023 1.509-2.21 1.487zm-.023 31.961c-1.179-.03-2.112-.736-2.075-1.584l.986-22.209c.037-.847 1.03-1.508 2.21-1.479 1.179.03 2.112.736 2.075 1.583l-.986 22.209c-.037.848-1.03 1.509-2.21 1.48z" fill="#232323"/><path d="M227.183 84.543c.358-9.24-1.784-23.57-11.281-37.863-4.337-6.667-12.586-11.082-22.702-14.204-2.621.06-4.599 37.796-23.905 39.765-19.88.208-30.907-23.25-34.027-36.309-.053-.2-.284-.297-.463-.2-3.853 2.066-5.398 3.292-8.309 5.507 3.837 5.969 11.676 25.25 13.169 40.226-3.322 17.958-13.931 39.929-17.746 45.764 10.176 9.224 24.718 14.85 43.561 14.613 16.253 0 26.548-3.159 34.917-7.991 17.641-13.282 25.912-33.826 26.786-49.308z" fill="#F2F2F2"/><path d="M241.659 51.348c.007-4.088-3.278-7.708-8.242-8.399-2.494-.35-4.547.104-7.451 2.096.358.543 2.09 4.742 3.188 8.6.94 3.59 1.575 7.611 1.762 9.335 4.696 0 10.743-3.872 10.743-11.632zM118.067 37.85c-4.382-3.426-12.497 2.35-12.497 2.35l-.142.051c7.779 4.125 12.497 11.447 12.497 19.385 0 8.592-1.389 15.817-8.496 20.313 6.085 5.739 6.757 11.677 6.757 19.541-.038 9.685-7.04 18.485-16.716 22.276-.044.342.21 1.754 5.025 6.311 5.755 5.448 10.728 3.329 15.229-4.505 7.637-13.943 14.476-34.83 15.887-42.062-3.3-21.882-13.154-40.233-17.544-43.66zM30.84 143.522a.287.287 0 01.202-.506c2.478.141 9.742.32 14.416-1.984 5.703-2.817 18.2-2.022 24.046 0 5.845 2.021 11.55 6.057 15.185 6.853 3.725 1.315 9.317 5.433 10.534 6.563a.22.22 0 01-.038.357c-3.33 1.917-25.614 10.205-45.487 4.184-11.213-3.731-13.244-10.443-18.858-15.467z" fill="#FAFF00"/><path d="M24.099 144.413s1.276-4.824 5.658-5.203c3.867 0 9.056.981 14.192-1.739 5.137-2.72 21.314-2.535 26.637-.327 5.33 2.208 9.996 5.775 16.783 7.7 4.718 1.405 11.773 7.842 12.086 8.407 0 0 .53-6.705 8.989-10.138 0 0-3.681-15.305-31.213-23.376-27.533-8.072-42.531 7.863-51.721 15.675-7.675 6.303-17.119 2.252-20.225 6.407-3.105 4.155-1.485 5.969 4.24 8.37 8.668 3.144 12.237 7.581 18.426 11.624 6.189 4.051 13.258 9.366 30.944 9.574 21.03.542 31.99-5.753 36.402-5.939l10.489-.513s-4.494-3.612-6.151-7.485c-2.725.989-26.973 11.9-49.46 5.701C33.2 158.023 30.37 144.785 24.1 144.413z" fill="#F2F2F2"/><path d="M44.076 156.484c1.516.878 3.263 1.688 5.323 2.394l3.21-19.519c-2.202.186-4.24.558-5.905 1.152l-2.628 15.973zm13.282 4.148c1.888.252 3.77.408 5.636.475l3.434-20.893a46.307 46.307 0 00-5.584-.81l-3.486 21.228zm13.288.297a77.24 77.24 0 005.83-.684l2.434-14.813c-1.65-.855-3.426-1.806-5.27-2.676l-2.994 18.173zm13.662-2.304a74.78 74.78 0 005.913-1.769l.709-5.597c-1.695-1.13-3.62-2.267-5.3-3.003l-1.322 10.369z" fill="#232323"/><path d="M69.4 45.194c4.36-4.623 10.795-7.389 16.08-8.124-.022-2.58-.806-4.72-2.456-6.266-4.696-4.408-14.505-1.635-21.919 6.191-7.405 7.827-9.6 17.742-4.904 22.15 1.65 1.546 3.941 2.193 6.532 2.059-.105-5.017 1.717-10.77 6.667-16.01z" fill="#F2F2F2"/><path d="M52.55 65.062c-.881.61-2.113.371-2.666-.543-2.687-4.43-3.56-8.756-2.598-12.874 1.172-5.024 4.793-8.384 7.003-10.034a1.868 1.868 0 012.755.595l.821 1.486-.903-1.627.074.14c.448.811.24 1.83-.507 2.38-1.755 1.307-4.726 4.028-5.622 7.93-.724 3.13 0 6.504 2.143 10.057.53.84.313 1.925-.5 2.49zm-.792 18.983c-.799-.714-2.045-.624-2.71.215-3.21 4.073-4.606 8.258-4.158 12.465.545 5.129 3.725 8.912 5.719 10.815.82.78 2.142.661 2.807-.253l1-1.375-1.09 1.509.097-.127a1.843 1.843 0 00-.209-2.423c-1.583-1.516-4.196-4.571-4.606-8.555-.329-3.188.799-6.451 3.367-9.722.597-.788.515-1.895-.217-2.55z" fill="#F8E8DB"/><path d="M219.934 33.51s9.085-2.007 9.974 6.303c-1.366.222-2.942.32-5.234 1.94-.38-.885-.485-2.669-4.74-8.243zm21.403 27.746s2.479 6.31-.171 9.35c-2.322 2.386-6.353 3.427-8.937 2.624-.119-1.747-.224-5.173-1.03-7.284.941.14 6.271.75 10.138-4.69zm-15.998 50.929s6.249 7.299.231 11.989c-1.381-2.126-4.651-3.575-4.651-3.575s3.203-4.571 4.42-8.414zm-20.329 29.196s3.412 2.958 8.265 3.991c0 2.438-6.025 6.526-10.415 3.754-2.687-1.598-3.509-3.04-3.509-3.04s3.92-1.873 5.659-4.705zm14.133-17.764s7.659 4.556 5.755 11.313c-1.911 6.756-11.526 9.432-17.327 2.883-.007.008 7.159-7.41 11.572-14.196z" fill="#FAFF00"/><defs><filter id="filter0_f_644_7314" x="58" y="86.784" width="281" height="86.857" filterUnits="userSpaceOnUse" color-interpolation-filters="sRGB"><feFlood flood-opacity="0" result="BackgroundImageFix"/><feBlend in="SourceGraphic" in2="BackgroundImageFix" result="shape"/><feGaussianBlur stdDeviation="7.5" result="effect1_foregroundBlur_644_7314"/></filter></defs></svg>