<svg width="157" height="44" fill="none" xmlns="http://www.w3.org/2000/svg"><path fill-rule="evenodd" clip-rule="evenodd" d="M3.694 12.585h61.83v27.721A3.694 3.694 0 0161.83 44H3.694A3.694 3.694 0 010 40.306V16.28a3.694 3.694 0 013.694-3.694z" fill="#E31724"/><path fill-rule="evenodd" clip-rule="evenodd" d="M73.205 9.237c1.243-1.65 1.84-4.495.873-9.237-12.206 1.897-9.588 8.493-8.422 10.555a42.201 42.201 0 016.316-7.643 46.572 46.572 0 00-4.201 7.449c1.645-1.897 3.575-1.996 5.434-1.124zm3.841 3.87c-5.349 6.031-8.218 2.693-9.284.882a14.224 14.224 0 015.159-.712 15.87 15.87 0 00-5.458-.687c.65-1.56 3.324-6.165 9.583.517z" fill="#85BC22"/><path fill-rule="evenodd" clip-rule="evenodd" d="M37.347 19.48h1.608v1.607h-1.608V19.48zM14.325 29.552l3.993-10.072h2.655l-6.136 14.458c-.9 2.12-2.081 3.058-4.267 3.144a8.9 8.9 0 01-3.32-.588v-2.025c2.072.607 2.343.678 3.082.664 1.01 0 1.864-.54 2.846-2.808L7.264 19.48H9.83l4.495 10.072zm17.408 7.53h-2.215v-4.68c-.973.256-1.976.385-2.983.383-3.105 0-4.95-1.602-4.979-4.77v-3.831h2.206v3.921c0 1.925.948 2.765 2.773 2.765a11.68 11.68 0 002.983-.384v-6.302h2.215v12.898zm8.82 0c-4.135 0-6.136-2.713-6.136-6.492 0-3.32 2.138-6.397 5.851-6.397 4.628 0 5.505 3.381 5.505 7.056h-9.318a4.012 4.012 0 004.169 4.026 4.38 4.38 0 003.58-1.608l1.422 1.01c-1.138 1.603-2.829 2.405-5.073 2.405zm-.285-11.149c-2.157 0-3.49 1.693-3.737 3.576h7.203c0-1.93-1.304-3.576-3.466-3.576zm17.986.043h-4.325v11.106h-2.205V25.976h-4.267v-1.792H58.23v1.783l.024.01zm-17-6.482h1.608V21.1h-1.608v-1.607z" fill="#fff"/><path d="M80.108 19.394c1.625 0 2.974.545 4.046 1.634 1.09 1.072 1.634 2.413 1.634 4.021 0 1.592-.545 2.932-1.634 4.021-1.072 1.09-2.42 1.634-4.046 1.634h-4.046v6.283h-2.337V19.394h6.383zm0 9.123c.972 0 1.776-.326 2.413-.98.636-.67.955-1.5.955-2.488 0-1.005-.319-1.835-.955-2.488-.637-.654-1.441-.98-2.413-.98h-4.046v6.936h4.046zm17.838-4.097h2.186v12.567h-2.186v-2.162c-1.09 1.66-2.673 2.488-4.75 2.488-1.76 0-3.259-.636-4.499-1.91-1.24-1.29-1.86-2.856-1.86-4.7 0-1.842.62-3.4 1.86-4.674 1.24-1.29 2.74-1.935 4.499-1.935 2.077 0 3.66.83 4.75 2.488v-2.161zm-4.474 10.782c1.274 0 2.338-.427 3.192-1.281.855-.872 1.282-1.944 1.282-3.217 0-1.274-.427-2.338-1.282-3.192-.854-.871-1.918-1.307-3.192-1.307-1.256 0-2.312.436-3.166 1.307-.855.854-1.282 1.918-1.282 3.192 0 1.273.427 2.345 1.282 3.217.854.854 1.91 1.281 3.166 1.281zm15.854 2.111c-1.86 0-3.393-.611-4.599-1.834-1.207-1.223-1.81-2.798-1.81-4.725 0-2.145.31-3.795.93-4.951.637-1.156 1.927-2.203 3.87-3.142.352-.167.83-.385 1.433-.653a56.1 56.1 0 001.357-.603c.285-.15.603-.344.955-.578.352-.252.612-.52.779-.804a3.3 3.3 0 00.402-1.03l1.76 1.005a4.985 4.985 0 01-.202.753 2.586 2.586 0 01-.377.654c-.15.2-.284.377-.402.528-.117.15-.318.318-.603.502l-.603.377c-.117.084-.36.21-.729.377-.352.168-.595.285-.729.352-.117.05-.393.168-.829.352a12.7 12.7 0 00-.804.327c-1.14.486-1.977.98-2.513 1.483-.52.502-.897 1.139-1.131 1.91a4.785 4.785 0 012.01-1.483 6.516 6.516 0 012.413-.478c1.575 0 2.907.536 3.996 1.609 1.106 1.072 1.659 2.454 1.659 4.146 0 1.71-.587 3.125-1.76 4.248-1.172 1.105-2.664 1.658-4.473 1.658zm-2.941-3.217c.788.738 1.768 1.106 2.941 1.106 1.173 0 2.136-.36 2.89-1.08.771-.72 1.156-1.626 1.156-2.715 0-1.122-.368-2.035-1.106-2.739-.72-.72-1.675-1.08-2.865-1.08-1.072 0-2.044.343-2.915 1.03-.855.67-1.282 1.558-1.282 2.664 0 1.14.394 2.077 1.181 2.814zm22.277 1.307c-1.29 1.274-2.857 1.91-4.7 1.91s-3.409-.636-4.699-1.91c-1.274-1.273-1.91-2.84-1.91-4.7 0-1.859.636-3.426 1.91-4.699 1.29-1.273 2.856-1.91 4.699-1.91s3.41.637 4.7 1.91 1.935 2.84 1.935 4.7c0 1.86-.645 3.426-1.935 4.7zm-4.7-.226c1.257 0 2.312-.427 3.167-1.282.854-.854 1.282-1.918 1.282-3.191 0-1.274-.428-2.338-1.282-3.192-.855-.855-1.91-1.282-3.167-1.282-1.24 0-2.287.427-3.141 1.282-.855.854-1.282 1.918-1.282 3.192 0 1.273.427 2.337 1.282 3.191.854.855 1.901 1.282 3.141 1.282zm18.247-10.757v2.112h-4.273v10.455h-2.186V26.532h-4.298V24.42h10.757zm12.006 0h2.186v12.567h-2.186v-2.162c-1.089 1.66-2.673 2.488-4.75 2.488-1.759 0-3.259-.636-4.499-1.91-1.24-1.29-1.86-2.856-1.86-4.7 0-1.842.62-3.4 1.86-4.674 1.24-1.29 2.74-1.935 4.499-1.935 2.077 0 3.661.83 4.75 2.488v-2.161zm-4.474 10.782c1.274 0 2.338-.427 3.192-1.281.855-.872 1.282-1.944 1.282-3.217 0-1.274-.427-2.338-1.282-3.192-.854-.871-1.918-1.307-3.192-1.307-1.256 0-2.312.436-3.166 1.307-.855.854-1.282 1.918-1.282 3.192 0 1.273.427 2.345 1.282 3.217.854.854 1.91 1.281 3.166 1.281z" fill="#fff"/></svg>